# Blender v2.90.1 OBJ File: 'crystal-baturalpk.blend'
# www.blender.org
mtllib crystal.mtl
o Cube_Cube.001
v -0.441870 -1.318433 0.612800
v -0.984749 0.408682 0.431477
v -0.521688 -0.776279 -0.873464
v -0.926702 0.985859 -0.812100
v 0.853691 -0.708331 0.771158
v 0.185171 2.384785 -0.216547
v 0.607618 0.066957 -0.481893
v 0.235981 1.844938 -0.515800
v -0.433445 -1.028354 -0.782889
v -0.346998 -0.996482 -0.027725
v -0.496380 -0.353733 0.533423
v -1.025432 0.353060 0.425789
v -0.890409 0.553127 0.333146
v -0.718314 0.983437 -0.558127
v -0.335928 0.925318 -0.386837
v -0.621597 0.031840 -0.897278
v 0.497444 -0.295052 -0.645917
v 0.061518 -0.399625 -0.769331
v -0.572619 1.308162 -0.894032
v -0.081083 1.605942 -0.764129
v 0.461663 1.219565 -0.717598
v 0.507699 0.508364 -0.461313
v 0.306556 -0.055963 0.272481
v 1.069763 -0.360906 -0.361741
v 0.276159 1.977548 -0.434338
v 0.251956 2.385574 -0.337935
v 0.666221 1.692468 0.118418
v 0.329400 0.047211 0.812112
v 0.022494 -0.697940 0.539848
v 0.417242 -0.801704 0.608680
v 0.042896 2.048680 0.082666
v -0.431138 1.340958 0.471611
v -0.117347 1.986164 -0.605810
v 0.204473 2.904678 -0.622284
v -0.393148 1.598571 -0.543512
v 0.011375 2.446747 -0.670582
v 0.120905 -0.957137 -0.815637
v 0.106364 -0.845003 0.045870
v 0.531582 -0.519150 -0.371607
v 0.481950 -0.762157 0.143796
v 0.150287 -0.223918 0.871093
v 0.021316 -0.568612 0.602768
v 0.526529 1.607943 0.070098
v -0.421331 0.631058 0.348600
v 0.692047 0.396398 -0.140644
v 0.080901 0.333847 0.189836
v 0.773087 1.226377 -0.437350
v 0.247270 2.065696 -0.253983
v -0.134855 0.212530 -0.496267
v 0.499801 0.434359 -0.434624
v -0.171185 1.040386 -0.617948
v 0.076322 1.169515 -0.672749
v -0.359125 -0.092794 0.049631
v -0.432811 0.087045 -0.412482
v -0.949109 0.117990 0.315625
v -0.404266 0.860851 -0.306770
vt 0.541667 0.166667
vt 0.625000 0.166667
vt 0.625000 0.250000
vt 0.541667 0.250000
vt 0.541667 0.416667
vt 0.625000 0.416667
vt 0.625000 0.500000
vt 0.541667 0.500000
vt 0.541667 0.666667
vt 0.625000 0.666667
vt 0.625000 0.750000
vt 0.541667 0.750000
vt 0.541667 0.916667
vt 0.625000 0.916667
vt 0.625000 1.000000
vt 0.541667 1.000000
vt 0.291667 0.666667
vt 0.375000 0.666667
vt 0.375000 0.750000
vt 0.291667 0.750000
vt 0.791667 0.666667
vt 0.875000 0.666667
vt 0.875000 0.750000
vt 0.791667 0.750000
vt 0.708333 0.666667
vt 0.708333 0.750000
vt 0.708333 0.500000
vt 0.708333 0.583333
vt 0.625000 0.583333
vt 0.791667 0.500000
vt 0.791667 0.583333
vt 0.875000 0.500000
vt 0.875000 0.583333
vt 0.125000 0.666667
vt 0.208333 0.666667
vt 0.208333 0.750000
vt 0.125000 0.750000
vt 0.125000 0.500000
vt 0.208333 0.500000
vt 0.208333 0.583333
vt 0.125000 0.583333
vt 0.291667 0.500000
vt 0.291667 0.583333
vt 0.375000 0.500000
vt 0.375000 0.583333
vt 0.375000 0.916667
vt 0.458333 0.916667
vt 0.458333 1.000000
vt 0.375000 1.000000
vt 0.458333 0.750000
vt 0.458333 0.833333
vt 0.375000 0.833333
vt 0.541667 0.833333
vt 0.625000 0.833333
vt 0.458333 0.666667
vt 0.458333 0.500000
vt 0.458333 0.583333
vt 0.541667 0.583333
vt 0.375000 0.416667
vt 0.458333 0.416667
vt 0.375000 0.250000
vt 0.458333 0.250000
vt 0.458333 0.333333
vt 0.375000 0.333333
vt 0.541667 0.333333
vt 0.625000 0.333333
vt 0.375000 0.166667
vt 0.458333 0.166667
vt 0.375000 0.000000
vt 0.458333 0.000000
vt 0.458333 0.083333
vt 0.375000 0.083333
vt 0.541667 0.000000
vt 0.541667 0.083333
vt 0.625000 0.000000
vt 0.625000 0.083333
vn -0.0754 -0.9834 -0.1653
vn 0.2069 0.1748 -0.9626
vn 0.8654 0.2212 -0.4497
vn 0.2089 -0.1703 0.9630
vn 0.8598 -0.0983 -0.5011
vn -0.8669 0.4853 0.1140
vn 0.5400 0.5053 0.6731
vn -0.7800 0.5392 0.3176
vn 0.3709 0.3910 -0.8423
vn 0.6537 -0.1015 -0.7499
vn -0.4736 0.5943 -0.6500
vn 0.3995 -0.2362 -0.8858
vn -0.7815 0.5823 0.2240
vn -0.8938 0.4477 0.0270
vn 0.6436 -0.7651 -0.0165
vn -0.0494 -0.9934 0.1037
vn 0.0783 -0.0402 -0.9961
vn 0.2121 -0.9742 0.0773
vn 0.6156 -0.1519 -0.7733
vn 0.5756 -0.8161 -0.0507
vn 0.4134 -0.2199 -0.8836
vn 0.7391 -0.3974 0.5440
vn -0.0025 0.0149 0.9999
vn -0.0035 0.1847 0.9828
vn -0.0240 -0.2353 0.9716
vn -0.3009 -0.4904 0.8179
vn -0.4523 0.4289 0.7820
vn -0.3595 0.2997 0.8837
vn 0.1831 0.4101 0.8934
vn 0.3740 0.0513 0.9260
vn 0.8309 0.5390 -0.1382
vn 0.6717 -0.3244 -0.6660
vn 0.7206 0.4011 -0.5655
vn 0.5862 0.2140 0.7814
vn 0.7258 -0.2469 -0.6420
vn 0.5105 0.1929 0.8380
vn 0.5720 0.4063 -0.7126
vn 0.9088 0.4134 -0.0565
vn 0.3066 0.2094 -0.9285
vn -0.0630 -0.3411 -0.9379
vn 0.3163 0.2276 -0.9210
vn 0.0563 0.3462 -0.9365
vn 0.1638 0.1947 -0.9671
vn 0.0868 -0.1992 -0.9761
vn 0.2197 -0.7266 -0.6510
vn 0.2557 -0.2799 -0.9253
vn -0.9099 -0.1186 0.3975
vn -0.9722 0.1060 0.2090
vn -0.9750 -0.0350 -0.2194
vn -0.9914 -0.0337 0.1263
vn -0.6340 -0.7284 -0.2597
vn -0.7958 -0.2447 -0.5539
vn -0.7222 0.1779 -0.6684
vn -0.5382 -0.5234 -0.6606
usemtl Material.001
s off
f 56/1/1 14/2/1 4/3/1 15/4/1
f 52/5/2 20/6/2 8/7/2 21/8/2
f 48/9/3 26/10/3 6/11/3 27/12/3
f 44/13/4 32/14/4 2/15/4 12/16/4
f 40/17/5 23/18/5 5/19/5 30/20/5
f 36/21/6 13/22/6 2/23/6 32/24/6
f 26/10/7 34/25/7 31/26/7 6/11/7
f 34/25/8 36/21/8 32/24/8 31/26/8
f 8/7/9 20/27/9 33/28/9 25/29/9
f 25/29/10 33/28/10 34/25/10 26/10/10
f 20/27/11 19/30/11 35/31/11 33/28/11
f 33/28/12 35/31/12 36/21/12 34/25/12
f 19/30/13 4/32/13 14/33/13 35/31/13
f 35/31/14 14/33/14 13/22/14 36/21/14
f 10/34/15 38/35/15 29/36/15 1/37/15
f 38/35/16 40/17/16 30/20/16 29/36/16
f 3/38/17 18/39/17 37/40/17 9/41/17
f 9/41/18 37/40/18 38/35/18 10/34/18
f 18/39/19 17/42/19 39/43/19 37/40/19
f 37/40/20 39/43/20 40/17/20 38/35/20
f 17/42/21 7/44/21 24/45/21 39/43/21
f 39/43/22 24/45/22 23/18/22 40/17/22
f 29/46/23 42/47/23 11/48/23 1/49/23
f 42/47/24 44/13/24 12/16/24 11/48/24
f 5/19/25 28/50/25 41/51/25 30/52/25
f 30/52/26 41/51/26 42/47/26 29/46/26
f 28/50/27 27/12/27 43/53/27 41/51/27
f 41/51/28 43/53/28 44/13/28 42/47/28
f 27/12/29 6/11/29 31/54/29 43/53/29
f 43/53/30 31/54/30 32/14/30 44/13/30
f 23/18/31 46/55/31 28/50/31 5/19/31
f 46/55/32 48/9/32 27/12/32 28/50/32
f 7/44/33 22/56/33 45/57/33 24/45/33
f 24/45/34 45/57/34 46/55/34 23/18/34
f 22/56/35 21/8/35 47/58/35 45/57/35
f 45/57/36 47/58/36 48/9/36 46/55/36
f 21/8/37 8/7/37 25/29/37 47/58/37
f 47/58/38 25/29/38 26/10/38 48/9/38
f 17/59/39 50/60/39 22/56/39 7/44/39
f 50/60/40 52/5/40 21/8/40 22/56/40
f 3/61/41 16/62/41 49/63/41 18/64/41
f 18/64/42 49/63/42 50/60/42 17/59/42
f 16/62/43 15/4/43 51/65/43 49/63/43
f 49/63/44 51/65/44 52/5/44 50/60/44
f 15/4/45 4/3/45 19/66/45 51/65/45
f 51/65/46 19/66/46 20/6/46 52/5/46
f 9/67/47 54/68/47 16/62/47 3/61/47
f 54/68/48 56/1/48 15/4/48 16/62/48
f 1/69/49 11/70/49 53/71/49 10/72/49
f 10/72/50 53/71/50 54/68/50 9/67/50
f 11/70/51 12/73/51 55/74/51 53/71/51
f 53/71/52 55/74/52 56/1/52 54/68/52
f 12/73/53 2/75/53 13/76/53 55/74/53
f 55/74/54 13/76/54 14/2/54 56/1/54
